# AST/ASF file generated using VICON BodyLanguage
# -----------------------------------------------
:version 1.10
:name VICON
:units
  mass 1.0
  length 0.45
  angle deg
:documentation
   .ast/.asf automatically generated from VICON data using
   VICON BodyBuilder and BodyLanguage model FoxedUp or BRILLIANT.MOD
:root
   order TX TY TZ RX RY RZ
   axis XYZ
   position 0 0 0  
   orientation 0 -0 0 
:bonedata
  begin
     id 1 
     name lhipjoint
     direction 0.515797 -0.759363 0.396637 
     length 2.47888 
     axis 0 -0 0  XYZ
  end
  begin
     id 2 
     name lfemur
     direction 0.34202 -0.939693 0  
     length 6.81885  
     axis 0 -0 20  XYZ
    dof rx ry rz
    limits (-160.0 20.0)
           (-70.0 70.0)
           (-60.0 70.0)
  end
  begin
     id 3 
     name ltibia
     direction 0.342037 -0.939687 0   
     length 7.89258   
     axis 0 -0 20   XYZ
    dof rx
    limits (-10.0 170.0)
  end
  begin
     id 4 
     name lfoot
     direction 0.173497 -0.476678 0.861787   
     length 2.51543   
     axis -90 -1.13533e-015 20   XYZ
    dof rx rz
    limits (-45.0 90.0)
           (-70.0 20.0)
  end
  begin
     id 5 
     name ltoes
     direction 1.53564e-011 -4.21897e-011 1   
     length 1.21388   
     axis -90 -1.13533e-015 20   XYZ
    dof rx
    limits (-90.0 20.0)
  end
  begin
     id 6 
     name rhipjoint
     direction -0.489454 -0.772941 0.403729   
     length 2.43534  
     axis 0 -0 0  XYZ 
  end
  begin
     id 7 
     name rfemur
     direction -0.34202 -0.939693 0   
     length 7.10357   
     axis 0 -0 -20   XYZ
    dof rx ry rz
    limits (-160.0 20.0)
           (-70.0 70.0)
           (-70.0 60.0)
  end
  begin
     id 8 
     name rtibia
     direction -0.34202 -0.939693 0   
     length 9.16127   
     axis 0 -0 -20   XYZ
    dof rx
    limits (-10.0 170.0)
 end
 begin
     id 9 
     name rfoot
     direction -0.270974 -0.748671 0.605033   
     length 1.74894  
     axis -90 1.13533e-015 -20   XYZ
    dof rx rz
    limits (-45.0 90.0)
           (-20.0 70.0)
  end
  begin
     id 10 
     name rtoes
     direction -1.53557e-011 -4.21759e-011 1   
     length 0.787585   
     axis -90 1.13533e-015 -20   XYZ
    dof rx
    limits (-90.0 20.0)
  end
  begin
     id 11 
     name lowerback
     direction -0.0140249 0.999561 0.0260968   
     length 2.16963   
     axis 0 -0 0   XYZ
    dof rx ry rz
    limits (-20.0 45.0)
           (-30.0 30.0)
           (-30.0 30.0)
  end
  begin
     id 12 
     name upperback
     direction 0.00860018 0.999959 -0.002711   
     length 2.1726   
     axis 0 -0 0   XYZ
    dof rx ry rz
    limits (-20.0 45.0)
           (-30.0 30.0)
           (-30.0 30.0)
  end
  begin
     id 13 
     name thorax
     direction 0.015211 0.999782 -0.0143191   
     length 2.17061   
     axis 0 -0 0   XYZ
    dof rx ry rz
    limits (-20.0 45.0)
           (-30.0 30.0)
           (-30.0 30.0)
  end
  begin
     id 14 
     name lowerneck
     direction -0.0140143 0.999447 0.030145   
     length 2.26749   
     axis 0 -0 0   XYZ
    dof rx ry rz
    limits (-20.0 45.0)
           (-30.0 30.0)
           (-30.0 30.0)
  end
  begin
     id 15 
     name upperneck
     direction 0.118062 0.961438 -0.248392   
     length 2.22728   
     axis 0 -0 0   XYZ
    dof rx ry rz
    limits (-20.0 45.0)
           (-30.0 30.0)
           (-30.0 30.0)
  end
  begin
     id 16
     name head
     direction 0.0431885 0.9954 -0.085514  
     length 2.28786  
     axis 0 -0 0   XYZ
    dof rx ry rz
    limits (-20.0 45.0)
           (-30.0 30.0)
           (-30.0 30.0)
  end
  begin
     id 17 
     name lclavicle
     direction 0.912126 0.409548 0.0172323  
     length 4.31571  
     axis 0 -0 0   XYZ
    dof ry rz
    limits (-20.0 10.0)
           (0.0 20.0)
  end
  begin
     id 18 
     name lhumerus
     direction 1 -4.48977e-011 1.93091e-027   
     length 5.13658   
     axis 180 -30 -90   XYZ
    dof rx ry rz
    limits (-60.0 90.0)
           (-90.0 90.0)
           (-90.0 90.0)
  end
  begin
     id 19
     name lradius
     direction 1 -4.48916e-011 6.84018e-027   
     length 3.22473   
     axis 180 -30 -90   XYZ
    dof rx
    limits (-10.0 170.0)
  end
  begin
     id 20
     name lwrist
     direction 1 -4.48987e-011 7.01981e-027   
     length 1.61236   
     axis -4.37994e-015 90 90   XYZ
    dof ry
    limits (-180.0 0.0)
 end
  begin
     id 21 
     name lhand
     direction 1 -4.49037e-011 1.40335e-026   
     length 0.936406   
     axis -8.96029e-015 90 90   XYZ
    dof rx rz
    limits (-90.0 90.0)
           (-45.0 45.0)
  end
  begin
     id 22 
     name lfingers
     direction 1 -4.48886e-011 2.8104e-026   
     length 0.754955   
     axis -1.79203e-014 90 90   XYZ
    dof rx
    limits (0.0 90.0)
  end
  begin
     id 23
     name lthumb
     direction 0.707107 -6.34937e-011 0.707107   
     length 1.08397   
     axis -90 45 -4.48555e-014   XYZ
    dof rx rz
    limits (-45.0 45.0)
           (-45.0 45.0)
  end
  begin
     id 24 
     name rclavicle
     direction -0.947962 0.317997 0.0156638   
     length 4.86918  
     axis 0 -0 0   XYZ 
    dof ry rz
    limits (-10.0 20.0)
           (-20.0 0.0)
  end
  begin
     id 25 
     name rhumerus
     direction -1 -4.48951e-011 2.80534e-018  
     length 5.60911   
     axis 180 30 90   XYZ
    dof rx ry rz
    limits (-90.0 60.0)
           (-90.0 90.0)
           (-90.0 90.0)
  end
  begin
     id 26 
     name rradius
     direction -1 -4.4898e-011 2.11315e-027   
     length 3.38704   
     axis 180 30 90   XYZ
    dof rx
    limits (-10.0 170.0)
  end
  begin
     id 27 
     name rwrist
     direction -1 -4.48933e-011 7.02314e-027   
     length 1.69352   
     axis -4.37994e-015 -90 -90   XYZ
    dof ry
    limits (-180.0 0.0)
  end
  begin
     id 28
     name rhand
     direction -1 -4.48937e-011 1.40458e-026   
     length 0.755878   
     axis -8.96029e-015 -90 -90   XYZ
    dof rx rz
    limits (-90.0 90.0)
           (-45.0 45.0)
  end
  begin
     id 29
     name rfingers
     direction -1 -4.4901e-011 2.80737e-026   
     length 0.609409   
     axis -1.79203e-014 -90 -90   XYZ
    dof rx
    limits (0.0 90.0)
  end
  begin
     id 30
     name rthumb
     direction -0.707107 -6.34968e-011 0.707107   
     length 0.874992   
     axis -90 -45 4.48555e-014   XYZ
    dof rx rz
    limits (-45.0 45.0)
           (-45.0 45.0)
  end
:hierarchy
  begin
    root lhipjoint rhipjoint lowerback
    lhipjoint lfemur
    lfemur ltibia
    ltibia lfoot
    lfoot ltoes
    rhipjoint rfemur
    rfemur rtibia
    rtibia rfoot
    rfoot rtoes
    lowerback upperback
    upperback thorax
    thorax lowerneck lclavicle rclavicle
    lowerneck upperneck
    upperneck head
    lclavicle lhumerus
    lhumerus lradius
    lradius lwrist
    lwrist lhand lthumb
    lhand lfingers
    rclavicle rhumerus
    rhumerus rradius
    rradius rwrist
    rwrist rhand rthumb
    rhand rfingers
  end

#!OML:ASF C:\ViconDB\ViconDB\414\Spring2016\041811\Spring2016.ASF
:FULLY-SPECIFIED
:DEGREES
47
root 7.03846 16.947 24.2171 -168.468 2.6017 181.259
lowerback 9.82222 3.72918 -0.49026
upperback 3.8345 5.3829 2.74361
thorax -1.81154 2.83829 2.49412
lowerneck -11.8257 -4.98859 -13.3683
upperneck 4.24712 -6.55133 18.6672
head 4.33754 -2.77493 7.60192
rclavicle 8.94531e-014 -2.14687e-014
rhumerus -30.585 10.8936 -84.3594
rradius 110.894
rwrist 5.64397
rhand -37.3301 -11.7185
rfingers 7.12502
rthumb -10.3931 -41.4416
lclavicle 8.94531e-014 -2.14687e-014
lhumerus -81.5117 -26.0402 104.194
lradius 63.4723
lwrist -11.3195
lhand -33.8344 15.3122
lfingers 7.12502
lthumb -7.01976 45.1758
rfemur -2.10227 -1.9952 23.7832
rtibia 41.4339
rfoot -162.028 17.5827
rtoes -6.89005
lfemur -50.9301 7.37929 -16.5429
ltibia 94.1781
lfoot -8.1708 -5.45047
ltoes -9.03338
48
root 7.04337 17.0044 23.9171 -168.26 2.76796 181.261
lowerback 9.41812 3.97598 -0.539315
upperback 3.72501 5.67336 2.58563
thorax -1.70689 2.97201 2.34971
lowerneck -11.7884 -5.13622 -13.2389
upperneck 3.99803 -6.75195 18.6685
head 4.28723 -2.88106 7.55774
rclavicle 1.51076e-014 -6.2816e-014
rhumerus -28.7 12.7346 -82.4808
rradius 114.226
rwrist 5.79065
rhand -36.2716 -11.7803
rfingers 7.12502
rthumb -9.3719 -41.5519
lclavicle 1.51076e-014 -6.2816e-014
lhumerus -85.062 -26.6859 104.647
lradius 64.5368
lwrist -10.4543
lhand -33.6554 14.8451
lfingers 7.12502
lthumb -6.84691 44.7144
rfemur 0.105758 -1.65304 23.6638
rtibia 38.6945
rfoot -160.991 16.7549
rtoes -7.65929
lfemur -53.0289 7.56555 -17.2548
ltibia 93.3887
lfoot -9.35413 -5.4796
ltoes -9.87786
49
root 7.04337 17.0714 23.6146 -167.927 2.62075 181.337
lowerback 8.98857 4.13952 -0.501341
upperback 3.50182 5.86188 2.53646
thorax -1.70294 3.05453 2.27973
lowerneck -11.4853 -5.31995 -13.4032
upperneck 3.57563 -6.97305 18.8206
head 4.16144 -3.01189 7.61645
rclavicle -7.59357e-014 -2.3059e-014
rhumerus -27.0567 14.5354 -80.2022
rradius 117.318
rwrist 5.29824
rhand -35.8998 -11.3771
rfingers 7.12502
rthumb -9.01313 -41.1645
lclavicle -7.59357e-014 -2.3059e-014
lhumerus -88.5669 -27.218 105.273
lradius 65.8796
lwrist -9.48233
lhand -33.4613 14.9455
lfingers 7.12502
lthumb -6.65953 44.8208
rfemur 2.03465 -1.56538 23.6188
rtibia 36.1214
rfoot -159.548 15.7331
rtoes -8.71677
lfemur -55.0142 7.26391 -17.8368
ltibia 92.1117
lfoot -10.3644 -5.69438
ltoes -10.3044
50
root 7.04352 17.1518 23.2814 -167.677 2.56456 181.241
lowerback 8.45032 4.38797 -0.536334
upperback 3.28669 6.14454 2.31998
thorax -1.62294 3.18038 2.0801
lowerneck -11.2372 -5.53738 -13.5069
upperneck 3.3402 -7.29439 19.1263
head 4.12377 -3.18259 7.70737
rclavicle 2.94201e-014 2.38542e-015
rhumerus -25.7919 15.925 -78.053
rradius 120.178
rwrist 4.85116
rhand -35.4157 -11.2522
rfingers 7.12502
rthumb -8.54592 -41.0593
lclavicle 2.94201e-014 2.38542e-015
lhumerus -91.8218 -27.8987 105.586
lradius 66.9103
lwrist -9.81522
lhand -33.3687 14.993
lfingers 7.12502
lthumb -6.5702 44.8711
rfemur 3.9473 -1.5761 23.3724
rtibia 33.6635
rfoot -157.736 14.2582
rtoes -9.63817
lfemur -56.3982 6.99359 -18.5771
ltibia 90.3226
lfoot -11.3162 -6.08952
ltoes -10.767
51
root 7.04078 17.245 22.9414 -167.36 2.45491 181.112
lowerback 7.90561 4.61622 -0.603021
upperback 3.02063 6.39891 2.12724
thorax -1.59444 3.29186 1.92684
lowerneck -11.0452 -5.81895 -13.6996
upperneck 3.2051 -7.67797 19.3383
head 4.13574 -3.37931 7.77594
rclavicle 3.29983e-014 -2.38542e-015
rhumerus -24.7723 17.2093 -75.5467
rradius 122.816
rwrist 4.27028
rhand -34.9415 -11.195
rfingers 7.12502
rthumb -8.08835 -41.0202
lclavicle 3.29983e-014 -2.38542e-015
lhumerus -94.6251 -28.3891 105.619
lradius 68.3341
lwrist -8.19809
lhand -33.1433 14.6004
lfingers 7.12502
lthumb -6.35251 44.4852
rfemur 5.60481 -1.84771 22.9811
rtibia 31.4353
rfoot -155.386 12.6563
rtoes -10.737
lfemur -57.5255 6.46957 -19.3093
ltibia 88.1074
lfoot -12.4599 -6.43934
ltoes -11.13
